<mxfile host="app.diagrams.net" agent="Mozilla/5.0 (Windows NT 10.0; Win64; x64) AppleWebKit/537.36 (KHTML, like Gecko) Chrome/131.0.0.0 Safari/537.36 Edg/131.0.0.0" version="27.0.9">
  <diagram name="第 1 页" id="wpJJwF4L-tCkOP_ctmO-">
    <mxGraphModel dx="1034" dy="572" grid="1" gridSize="10" guides="1" tooltips="1" connect="1" arrows="1" fold="1" page="1" pageScale="1" pageWidth="827" pageHeight="1169" math="0" shadow="0">
      <root>
        <mxCell id="0" />
        <mxCell id="1" parent="0" />
        <mxCell id="Veg0vQQlioStaFYAt9b2-1" style="edgeStyle=orthogonalEdgeStyle;html=1;entryX=1;entryY=0.5;dashed=1;labelBackgroundColor=none;startArrow=ERmandOne;endArrow=ERzeroToMany;fontFamily=Verdana;fontSize=12;align=left;endSize=8;startSize=8;endFill=0;exitX=0.25;exitY=1;exitDx=0;exitDy=0;entryDx=0;entryDy=0;" parent="1" source="Veg0vQQlioStaFYAt9b2-18" target="Veg0vQQlioStaFYAt9b2-21" edge="1">
          <mxGeometry relative="1" as="geometry">
            <mxPoint x="612.4999999999995" y="355" as="sourcePoint" />
            <mxPoint x="500" y="455" as="targetPoint" />
          </mxGeometry>
        </mxCell>
        <mxCell id="Veg0vQQlioStaFYAt9b2-26" value="&lt;span style=&quot;font-size: 13px;&quot;&gt;participates in&lt;/span&gt;" style="edgeLabel;html=1;align=center;verticalAlign=middle;resizable=0;points=[];" parent="Veg0vQQlioStaFYAt9b2-1" vertex="1" connectable="0">
          <mxGeometry x="0.1467" y="1" relative="1" as="geometry">
            <mxPoint as="offset" />
          </mxGeometry>
        </mxCell>
        <mxCell id="Veg0vQQlioStaFYAt9b2-3" style="edgeStyle=orthogonalEdgeStyle;html=1;labelBackgroundColor=none;startArrow=ERmandOne;endArrow=ERzeroToMany;fontFamily=Verdana;fontSize=12;align=left;exitX=0.75;exitY=0;exitDx=0;exitDy=0;endSize=8;startSize=8;endFill=0;entryX=0;entryY=0.5;entryDx=0;entryDy=0;" parent="1" source="Veg0vQQlioStaFYAt9b2-18" target="Veg0vQQlioStaFYAt9b2-20" edge="1">
          <mxGeometry relative="1" as="geometry">
            <mxPoint x="879.9999999999995" y="215" as="targetPoint" />
            <mxPoint x="677.4999999999995" y="305" as="sourcePoint" />
          </mxGeometry>
        </mxCell>
        <mxCell id="Veg0vQQlioStaFYAt9b2-4" value="&lt;span&gt;registers&lt;/span&gt;" style="edgeLabel;html=1;align=center;verticalAlign=middle;resizable=0;points=[];labelBackgroundColor=#FFFFFF;fontSize=13;" parent="Veg0vQQlioStaFYAt9b2-3" vertex="1" connectable="0">
          <mxGeometry x="-0.1346" y="-2" relative="1" as="geometry">
            <mxPoint x="30" y="-2" as="offset" />
          </mxGeometry>
        </mxCell>
        <mxCell id="Veg0vQQlioStaFYAt9b2-5" style="edgeStyle=orthogonalEdgeStyle;html=1;dashed=1;labelBackgroundColor=none;startArrow=ERoneToMany;endArrow=ERmandOne;fontFamily=Verdana;fontSize=12;align=left;startFill=0;endFill=0;endSize=8;startSize=8;exitX=1;exitY=0.5;exitDx=0;exitDy=0;entryX=0;entryY=0.5;entryDx=0;entryDy=0;" parent="1" source="Veg0vQQlioStaFYAt9b2-18" target="Veg0vQQlioStaFYAt9b2-19" edge="1">
          <mxGeometry relative="1" as="geometry">
            <mxPoint x="770" y="375" as="sourcePoint" />
            <mxPoint x="850" y="335" as="targetPoint" />
          </mxGeometry>
        </mxCell>
        <mxCell id="Veg0vQQlioStaFYAt9b2-6" value="belongs to" style="edgeLabel;html=1;align=center;verticalAlign=middle;resizable=0;points=[];fontSize=13;" parent="Veg0vQQlioStaFYAt9b2-5" vertex="1" connectable="0">
          <mxGeometry x="0.1905" y="1" relative="1" as="geometry">
            <mxPoint x="-20" y="1" as="offset" />
          </mxGeometry>
        </mxCell>
        <mxCell id="Veg0vQQlioStaFYAt9b2-7" style="edgeStyle=orthogonalEdgeStyle;html=1;entryX=0;entryY=0.5;dashed=1;labelBackgroundColor=none;startArrow=ERoneToMany;endArrow=ERmandOne;fontFamily=Verdana;fontSize=12;align=left;entryDx=0;entryDy=0;endFill=0;startFill=0;endSize=8;startSize=8;exitX=1;exitY=0.5;exitDx=0;exitDy=0;" parent="1" source="Veg0vQQlioStaFYAt9b2-22" target="Veg0vQQlioStaFYAt9b2-25" edge="1">
          <mxGeometry relative="1" as="geometry">
            <mxPoint x="980" y="738" as="sourcePoint" />
            <mxPoint x="1160.9999999999995" y="630" as="targetPoint" />
          </mxGeometry>
        </mxCell>
        <mxCell id="Veg0vQQlioStaFYAt9b2-8" value="is owned by" style="edgeLabel;html=1;align=center;verticalAlign=middle;resizable=0;points=[];fontSize=13;" parent="Veg0vQQlioStaFYAt9b2-7" vertex="1" connectable="0">
          <mxGeometry x="-0.0844" y="1" relative="1" as="geometry">
            <mxPoint x="9" y="1" as="offset" />
          </mxGeometry>
        </mxCell>
        <mxCell id="Veg0vQQlioStaFYAt9b2-9" style="edgeStyle=orthogonalEdgeStyle;html=1;entryX=0;entryY=0.5;labelBackgroundColor=none;startArrow=ERoneToMany;endArrow=ERmandOne;fontFamily=Verdana;fontSize=12;align=left;entryDx=0;entryDy=0;startFill=0;endFill=0;dashed=1;endSize=8;startSize=8;exitX=1;exitY=0.5;exitDx=0;exitDy=0;" parent="1" source="Veg0vQQlioStaFYAt9b2-17" target="Veg0vQQlioStaFYAt9b2-18" edge="1">
          <mxGeometry relative="1" as="geometry">
            <mxPoint x="460" y="330" as="sourcePoint" />
            <mxPoint x="580" y="330" as="targetPoint" />
          </mxGeometry>
        </mxCell>
        <mxCell id="Veg0vQQlioStaFYAt9b2-10" value="has" style="edgeLabel;html=1;align=center;verticalAlign=middle;resizable=0;points=[];fontSize=13;" parent="Veg0vQQlioStaFYAt9b2-9" vertex="1" connectable="0">
          <mxGeometry x="-0.0879" y="2" relative="1" as="geometry">
            <mxPoint as="offset" />
          </mxGeometry>
        </mxCell>
        <mxCell id="Veg0vQQlioStaFYAt9b2-11" style="edgeStyle=orthogonalEdgeStyle;html=1;entryX=0;entryY=0.5;dashed=1;labelBackgroundColor=none;startArrow=ERmandOne;endArrow=ERzeroToMany;fontFamily=Verdana;fontSize=12;align=left;exitX=0.75;exitY=1;exitDx=0;exitDy=0;endSize=8;startSize=8;endFill=0;entryDx=0;entryDy=0;" parent="1" source="Veg0vQQlioStaFYAt9b2-18" target="Veg0vQQlioStaFYAt9b2-22" edge="1">
          <mxGeometry relative="1" as="geometry">
            <mxPoint x="677.4999999999995" y="355" as="sourcePoint" />
            <mxPoint x="834.9999999999995" y="455" as="targetPoint" />
          </mxGeometry>
        </mxCell>
        <mxCell id="Veg0vQQlioStaFYAt9b2-12" value="purchases" style="edgeLabel;html=1;align=center;verticalAlign=middle;resizable=0;points=[];fontSize=13;" parent="Veg0vQQlioStaFYAt9b2-11" vertex="1" connectable="0">
          <mxGeometry x="0.0449" y="4" relative="1" as="geometry">
            <mxPoint x="23" y="4" as="offset" />
          </mxGeometry>
        </mxCell>
        <mxCell id="Veg0vQQlioStaFYAt9b2-13" value="" style="edgeStyle=orthogonalEdgeStyle;html=1;endArrow=ERmandOne;startArrow=ERmandOne;labelBackgroundColor=none;fontFamily=Verdana;fontSize=12;align=left;exitX=1;exitY=0.5;entryX=0.25;entryY=0;entryDx=0;entryDy=0;exitDx=0;exitDy=0;dashed=1;endSize=8;startSize=8;endFill=0;" parent="1" source="Veg0vQQlioStaFYAt9b2-24" target="Veg0vQQlioStaFYAt9b2-18" edge="1">
          <mxGeometry width="100" height="100" relative="1" as="geometry">
            <mxPoint x="430" y="225" as="sourcePoint" />
            <mxPoint x="612.4999999999995" y="305" as="targetPoint" />
          </mxGeometry>
        </mxCell>
        <mxCell id="Veg0vQQlioStaFYAt9b2-14" value="is listed in" style="edgeLabel;html=1;align=center;verticalAlign=middle;resizable=0;points=[];fontSize=13;" parent="Veg0vQQlioStaFYAt9b2-13" vertex="1" connectable="0">
          <mxGeometry x="-0.0885" y="5" relative="1" as="geometry">
            <mxPoint x="-15" y="5" as="offset" />
          </mxGeometry>
        </mxCell>
        <mxCell id="Veg0vQQlioStaFYAt9b2-15" style="edgeStyle=orthogonalEdgeStyle;html=1;dashed=1;labelBackgroundColor=none;startArrow=ERoneToMany;endArrow=ERmandOne;fontFamily=Verdana;fontSize=12;align=left;exitX=1;exitY=0.5;exitDx=0;exitDy=0;endSize=8;startSize=8;endFill=0;startFill=0;entryX=0;entryY=0.5;entryDx=0;entryDy=0;" parent="1" source="Veg0vQQlioStaFYAt9b2-19" target="Veg0vQQlioStaFYAt9b2-23" edge="1">
          <mxGeometry relative="1" as="geometry">
            <mxPoint x="1030.9999999999995" y="505" as="sourcePoint" />
            <mxPoint x="1161" y="505" as="targetPoint" />
          </mxGeometry>
        </mxCell>
        <mxCell id="Veg0vQQlioStaFYAt9b2-16" value="&lt;span&gt;is located in&lt;/span&gt;" style="edgeLabel;html=1;align=center;verticalAlign=middle;resizable=0;points=[];labelBackgroundColor=#FFFFFF;fontSize=13;" parent="Veg0vQQlioStaFYAt9b2-15" vertex="1" connectable="0">
          <mxGeometry x="-0.1346" y="-2" relative="1" as="geometry">
            <mxPoint x="9" y="-2" as="offset" />
          </mxGeometry>
        </mxCell>
        <mxCell id="Veg0vQQlioStaFYAt9b2-17" value="&lt;div style=&quot;text-align: center; box-sizing: border-box; width: 100%; background: rgb(228, 228, 228); padding: 2px;&quot;&gt;&lt;span style=&quot;font-size: 14px;&quot;&gt;&lt;b&gt;EmploymentHistory&lt;/b&gt;&lt;/span&gt;&lt;/div&gt;&lt;table style=&quot;width:100%;font-size:1em;&quot; cellpadding=&quot;2&quot; cellspacing=&quot;0&quot;&gt;&lt;tbody&gt;&lt;tr&gt;&lt;td&gt;HistoryID[PK1]&lt;br&gt;EmployeeID[FK]&lt;br&gt;EmploymentType&lt;br&gt;EmploymentStatus&lt;br&gt;StartDate&lt;br&gt;EndDate&lt;br&gt;TerminationReason&lt;/td&gt;&lt;td&gt;&lt;br&gt;&lt;/td&gt;&lt;/tr&gt;&lt;/tbody&gt;&lt;/table&gt;" style="verticalAlign=top;align=left;overflow=fill;html=1;whiteSpace=wrap;rounded=0;shadow=0;comic=0;strokeColor=default;strokeWidth=1;fontFamily=Verdana;fontSize=12;fontColor=default;labelBackgroundColor=none;fillColor=default;" parent="1" vertex="1">
          <mxGeometry x="258.5" y="358.75" width="171.5" height="132.5" as="geometry" />
        </mxCell>
        <mxCell id="Veg0vQQlioStaFYAt9b2-18" value="&lt;div style=&quot;text-align: center; box-sizing: border-box; width: 100%; background: rgb(228, 228, 228); padding: 2px;&quot;&gt;&lt;span style=&quot;font-size: 14px;&quot;&gt;&lt;b&gt;Employee&lt;/b&gt;&lt;/span&gt;&lt;/div&gt;&lt;table style=&quot;width:100%;font-size:1em;&quot; cellpadding=&quot;2&quot; cellspacing=&quot;0&quot;&gt;&lt;tbody&gt;&lt;tr&gt;&lt;td&gt;&lt;/td&gt;&lt;td&gt;EmployeeID[PK1]&lt;br&gt;EmployeeOfficialHireDate&lt;/td&gt;&lt;/tr&gt;&lt;tr&gt;&lt;td&gt;&lt;br&gt;&lt;/td&gt;&lt;td&gt;EmployeeLastName&lt;br&gt;EmployeeFirstName&lt;br&gt;EmployeeMiddleName&lt;br&gt;EmployeeNickname&lt;br&gt;EmployeeSSN&lt;br&gt;EmployeeHomePhone&lt;br&gt;EmployeeBirthDate&lt;br&gt;EmployeeHomeAddressStreet&lt;br&gt;EmployeeHomeAddressCity&lt;br&gt;EmployeeHomeAddressState&lt;br&gt;EmployeeHomeAddressZip&lt;br&gt;EmployeeMaritalStatus&lt;br&gt;&lt;/td&gt;&lt;/tr&gt;&lt;/tbody&gt;&lt;/table&gt;" style="verticalAlign=top;align=left;overflow=fill;html=1;whiteSpace=wrap;rounded=0;shadow=0;comic=0;strokeColor=default;strokeWidth=1;fontFamily=Verdana;fontSize=12;fontColor=default;labelBackgroundColor=none;fillColor=default;" parent="1" vertex="1">
          <mxGeometry x="580" y="300" width="190" height="245" as="geometry" />
        </mxCell>
        <mxCell id="Veg0vQQlioStaFYAt9b2-19" value="&lt;div style=&quot;text-align: center; box-sizing: border-box; width: 100%; background: rgb(228, 228, 228); padding: 2px;&quot;&gt;&lt;font style=&quot;font-size: 14px;&quot;&gt;&lt;b&gt;Department&lt;/b&gt;&lt;/font&gt;&lt;/div&gt;&lt;table style=&quot;width:100%;font-size:1em;&quot; cellpadding=&quot;2&quot; cellspacing=&quot;0&quot;&gt;&lt;tbody&gt;&lt;tr&gt;&lt;td&gt;DepartmentID[PK1]&lt;/td&gt;&lt;td&gt;&lt;/td&gt;&lt;/tr&gt;&lt;/tbody&gt;&lt;/table&gt;" style="verticalAlign=top;align=left;overflow=fill;html=1;whiteSpace=wrap;rounded=0;shadow=0;comic=0;strokeColor=default;strokeWidth=1;fontFamily=Verdana;fontSize=12;fontColor=default;labelBackgroundColor=none;fillColor=default;" parent="1" vertex="1">
          <mxGeometry x="910" y="397.5" width="140" height="50" as="geometry" />
        </mxCell>
        <mxCell id="Veg0vQQlioStaFYAt9b2-20" value="&lt;div style=&quot;text-align: center; box-sizing: border-box; width: 100%; background: rgb(228, 228, 228); padding: 2px;&quot;&gt;&lt;font style=&quot;font-size: 14px;&quot;&gt;&lt;b&gt;EmergencyContact&lt;/b&gt;&lt;/font&gt;&lt;/div&gt;&lt;table style=&quot;width:100%;font-size:1em;&quot; cellpadding=&quot;2&quot; cellspacing=&quot;0&quot;&gt;&lt;tbody&gt;&lt;tr&gt;&lt;td&gt;EmployeeID[PK1][FK]&lt;br&gt;ContactSequenece[PK2]&lt;br&gt;ContactLastName&lt;br&gt;ContactFirstName&lt;br&gt;ContactMiddleName&lt;br&gt;ContactRelationship&lt;br&gt;ContactHomeAddressStreet&lt;br&gt;ContactHomeAddressCity&lt;br&gt;ContactHomeAddressState&lt;br&gt;ContactHomeAddressZip&lt;/td&gt;&lt;td&gt;&lt;/td&gt;&lt;/tr&gt;&lt;/tbody&gt;&lt;/table&gt;ContactHomePhone&lt;br&gt;&lt;div&gt;&lt;span style=&quot;background-color: transparent; color: light-dark(rgb(0, 0, 0), rgb(255, 255, 255));&quot;&gt;Contact&lt;/span&gt;WorkPhone&lt;/div&gt;" style="verticalAlign=top;align=left;overflow=fill;html=1;whiteSpace=wrap;rounded=0;shadow=0;comic=0;strokeColor=default;strokeWidth=1;fontFamily=Verdana;fontSize=12;fontColor=default;labelBackgroundColor=none;fillColor=default;" parent="1" vertex="1">
          <mxGeometry x="910" y="140" width="170" height="200" as="geometry" />
        </mxCell>
        <mxCell id="Veg0vQQlioStaFYAt9b2-21" value="&lt;div style=&quot;text-align: center; box-sizing: border-box; width: 100%; background: rgb(228, 228, 228); padding: 2px;&quot;&gt;&lt;span style=&quot;font-size: 14px;&quot;&gt;&lt;b&gt;UnitedWayContribution&lt;/b&gt;&lt;/span&gt;&lt;/div&gt;&lt;table style=&quot;width:100%;font-size:1em;&quot; cellpadding=&quot;2&quot; cellspacing=&quot;0&quot;&gt;&lt;tbody&gt;&lt;tr&gt;&lt;td&gt;ContributionID[PK1]&lt;br&gt;EmployeeID[FK]&lt;br&gt;ContributionYear&lt;br&gt;ContributionDeductionType&lt;br&gt;ContributionDeductionAmount&lt;br&gt;ContributionEffectiveDate&lt;br&gt;ContributionSignature&lt;br&gt;ContributionSignatureDate&lt;br&gt;&lt;/td&gt;&lt;td&gt;&lt;br&gt;&lt;/td&gt;&lt;/tr&gt;&lt;/tbody&gt;&lt;/table&gt;" style="verticalAlign=top;align=left;overflow=fill;html=1;whiteSpace=wrap;rounded=0;shadow=0;comic=0;strokeColor=default;strokeWidth=1;fontFamily=Verdana;fontSize=12;fontColor=default;labelBackgroundColor=none;fillColor=default;" parent="1" vertex="1">
          <mxGeometry x="246.5" y="560" width="197" height="140" as="geometry" />
        </mxCell>
        <mxCell id="Veg0vQQlioStaFYAt9b2-22" value="&lt;div style=&quot;text-align: center; box-sizing: border-box; width: 100%; background: rgb(228, 228, 228); padding: 2px;&quot;&gt;&lt;span style=&quot;font-size: 14px;&quot;&gt;&lt;b&gt;SavingsBond&lt;/b&gt;&lt;/span&gt;&lt;/div&gt;&lt;table style=&quot;width:100%;font-size:1em;&quot; cellpadding=&quot;2&quot; cellspacing=&quot;0&quot;&gt;&lt;tbody&gt;&lt;tr&gt;&lt;td&gt;BondID[PK1]&lt;br&gt;EmployeeID[FK]&lt;br&gt;OwnerSSN[FK]&lt;br&gt;BondRelationship&lt;br&gt;BondDenomination&lt;br&gt;BondDeductionType&lt;br&gt;BondDeductionAmount&lt;br&gt;BondOwnType&lt;br&gt;BondMailingAddressStreet&lt;br&gt;BondMailingAddressCity&lt;br&gt;BondMailingAddressState&lt;br&gt;BondMailingAddressZip&lt;br&gt;BondSignature&lt;br&gt;BondSignatureDate&lt;br&gt;&lt;br&gt;&lt;/td&gt;&lt;td&gt;&lt;/td&gt;&lt;/tr&gt;&lt;/tbody&gt;&lt;/table&gt;" style="verticalAlign=top;align=left;overflow=fill;html=1;whiteSpace=wrap;rounded=0;shadow=0;comic=0;strokeColor=default;strokeWidth=1;fontFamily=Verdana;fontSize=12;fontColor=default;labelBackgroundColor=none;fillColor=default;" parent="1" vertex="1">
          <mxGeometry x="860" y="550" width="170" height="230" as="geometry" />
        </mxCell>
        <mxCell id="Veg0vQQlioStaFYAt9b2-23" value="&lt;div style=&quot;box-sizing: border-box; width: 100%; background: rgb(228, 228, 228); padding: 2px; text-align: center;&quot;&gt;&lt;span style=&quot;font-size: 14px;&quot;&gt;&lt;b&gt;Site&lt;/b&gt;&lt;/span&gt;&lt;/div&gt;&lt;table style=&quot;width:100%;font-size:1em;&quot; cellpadding=&quot;2&quot; cellspacing=&quot;0&quot;&gt;&lt;tbody&gt;&lt;tr&gt;&lt;td&gt;SiteCode[PK1]&lt;/td&gt;&lt;td&gt;&lt;br&gt;&lt;/td&gt;&lt;/tr&gt;&lt;/tbody&gt;&lt;/table&gt;" style="verticalAlign=top;align=left;overflow=fill;html=1;whiteSpace=wrap;rounded=0;shadow=0;comic=0;strokeColor=default;strokeWidth=1;fontFamily=Verdana;fontSize=12;fontColor=default;labelBackgroundColor=none;fillColor=default;" parent="1" vertex="1">
          <mxGeometry x="1191" y="400" width="120" height="50" as="geometry" />
        </mxCell>
        <mxCell id="Veg0vQQlioStaFYAt9b2-24" value="&lt;div style=&quot;text-align: center; box-sizing: border-box; width: 100%; background: rgb(228, 228, 228); padding: 2px;&quot;&gt;&lt;font style=&quot;font-size: 14px;&quot;&gt;&lt;b&gt;TelephoneListing&lt;/b&gt;&lt;/font&gt;&lt;/div&gt;&lt;table style=&quot;width:100%;font-size:1em;&quot; cellpadding=&quot;2&quot; cellspacing=&quot;0&quot;&gt;&lt;tbody&gt;&lt;tr&gt;&lt;td&gt;ListingID[PK1]&lt;br&gt;EmployeeID[FK]&lt;br&gt;PhoneNumber&lt;br&gt;SiteCode&lt;br&gt;BuildingCode&lt;br&gt;RoomNumber&lt;br&gt;MailStop&lt;br&gt;DepartmentID&lt;br&gt;&lt;/td&gt;&lt;td&gt;&lt;/td&gt;&lt;/tr&gt;&lt;/tbody&gt;&lt;/table&gt;" style="verticalAlign=top;align=left;overflow=fill;html=1;whiteSpace=wrap;rounded=0;shadow=0;comic=0;strokeColor=default;strokeWidth=1;fontFamily=Verdana;fontSize=12;fontColor=default;labelBackgroundColor=none;fillColor=default;" parent="1" vertex="1">
          <mxGeometry x="280" y="150" width="150" height="150" as="geometry" />
        </mxCell>
        <mxCell id="Veg0vQQlioStaFYAt9b2-25" value="&lt;div style=&quot;box-sizing: border-box; width: 100%; background: rgb(228, 228, 228); padding: 2px; text-align: center;&quot;&gt;&lt;span style=&quot;font-size: 14px;&quot;&gt;&lt;b&gt;BondOwner&lt;/b&gt;&lt;/span&gt;&lt;/div&gt;&lt;table style=&quot;width:100%;font-size:1em;&quot; cellpadding=&quot;2&quot; cellspacing=&quot;0&quot;&gt;&lt;tbody&gt;&lt;tr&gt;&lt;td&gt;OwnerSSN[PK1]&lt;br&gt;OwnerLastName&lt;br&gt;OwnerFirstName&lt;br&gt;OwnerMiddleName&lt;br&gt;&lt;br&gt;&lt;/td&gt;&lt;td&gt;&lt;/td&gt;&lt;/tr&gt;&lt;/tbody&gt;&lt;/table&gt;" style="verticalAlign=top;align=left;overflow=fill;html=1;whiteSpace=wrap;rounded=0;shadow=0;comic=0;strokeColor=default;strokeWidth=1;fontFamily=Verdana;fontSize=12;fontColor=default;labelBackgroundColor=none;fillColor=default;" parent="1" vertex="1">
          <mxGeometry x="1191" y="620" width="140" height="90" as="geometry" />
        </mxCell>
      </root>
    </mxGraphModel>
  </diagram>
</mxfile>
